<svg xmlns="http://www.w3.org/2000/svg" viewBox="0 0 120 100">
  <defs>
    <linearGradient id="bloom-lotus-grad" x1="60" y1="90" x2="60" y2="10" gradientUnits="userSpaceOnUse">
      <stop offset="0%" stop-color="#7c3aed"/>
      <stop offset="35%" stop-color="#a78bfa"/>
      <stop offset="65%" stop-color="#c084fc"/>
      <stop offset="100%" stop-color="#e879f9"/>
    </linearGradient>
  </defs>
  <path d="M60,90 C32,82 4,60 8,42 C24,52 48,82 60,90Z" fill="url(#bloom-lotus-grad)" opacity="0.5"/>
  <path d="M60,90 C88,82 116,60 112,42 C96,52 72,82 60,90Z" fill="url(#bloom-lotus-grad)" opacity="0.5"/>
  <path d="M60,90 C36,76 12,52 20,26 C40,44 56,76 60,90Z" fill="url(#bloom-lotus-grad)" opacity="0.65"/>
  <path d="M60,90 C84,76 108,52 100,26 C80,44 64,76 60,90Z" fill="url(#bloom-lotus-grad)" opacity="0.65"/>
  <path d="M60,90 C44,68 26,42 36,14 C56,36 62,68 60,90Z" fill="url(#bloom-lotus-grad)" opacity="0.8"/>
  <path d="M60,90 C76,68 94,42 84,14 C64,36 58,68 60,90Z" fill="url(#bloom-lotus-grad)" opacity="0.8"/>
  <path d="M60,90 C46,64 44,34 60,10 C76,34 74,64 60,90Z" fill="url(#bloom-lotus-grad)" opacity="0.95"/>
</svg>
